P3
64 64
255
163 200 255
163 200 255
162 200 255
162 199 255
161 199 255
160 198 255
160 198 255
159 198 255
158 197 255
158 197 255
157 196 255
156 196 255
156 196 255
155 195 255
154 195 255
154 194 255
153 194 255
152 194 255
152 193 255
151 193 255
150 192 255
150 192 255
149 192 255
149 191 255
148 191 255
148 191 255
147 191 255
147 190 255
147 190 255
146 190 255
146 190 255
146 190 255
146 190 255
146 190 255
146 190 255
147 190 255
147 190 255
147 191 255
148 191 255
148 191 255
149 191 255
149 192 255
150 192 255
150 192 255
151 193 255
152 193 255
152 194 255
153 194 255
154 194 255
154 195 255
155 195 255
156 196 255
156 196 255
157 196 255
158 197 255
158 197 255
159 198 255
160 198 255
160 198 255
161 199 255
162 199 255
162 200 255
163 200 255
163 200 255
164 201 255
164 200 255
163 200 255
162 200 255
162 199 255
161 199 255
161 199 255
160 198 255
159 198 255
159 197 255
158 197 255
157 197 255
157 196 255
156 196 255
155 195 255
154 195 255
154 194 255
153 194 255
152 194 255
152 193 255
151 193 255
151 193 255
150 192 255
149 192 255
149 192 255
148 191 255
148 191 255
148 191 255
147 191 255
147 191 255
147 190 255
147 190 255
147 190 255
147 190 255
147 191 255
147 191 255
148 191 255
148 191 255
148 191 255
149 192 255
149 192 255
150 192 255
151 193 255
151 193 255
152 193 255
152 194 255
153 194 255
154 194 255
154 195 255
155 195 255
156 196 255
157 196 255
157 197 255
158 197 255
159 197 255
159 198 255
160 198 255
161 199 255
161 199 255
162 199 255
162 200 255
163 200 255
164 200 255
164 201 255
165 201 255
164 201 255
164 200 255
163 200 255
163 200 255
162 199 255
161 199 255
161 199 255
160 198 255
159 198 255
159 197 255
158 197 255
157 197 255
157 196 255
156 196 255
155 195 255
155 195 255
154 195 255
153 194 255
153 194 255
152 193 255
151 193 255
151 193 255
150 192 255
150 192 255
149 192 255
149 191 255
148 191 255
148 191 255
148 191 255
148 191 255
148 191 255
148 191 255
148 191 255
148 191 255
148 191 255
148 191 255
149 191 255
149 192 255
150 192 255
150 192 255
151 193 255
151 193 255
152 193 255
153 194 255
153 194 255
154 195 255
155 195 255
155 195 255
156 196 255
157 196 255
157 197 255
158 197 255
159 197 255
159 198 255
160 198 255
161 199 255
161 199 255
162 199 255
163 200 255
163 200 255
164 200 255
164 201 255
165 201 255
166 202 255
165 201 255
164 201 255
164 201 255
163 200 255
163 200 255
162 199 255
162 199 255
161 199 255
160 198 255
160 198 255
159 198 255
158 197 255
158 197 255
157 196 255
156 196 255
155 195 255
155 195 255
154 195 255
153 194 255
153 194 255
152 194 255
152 193 255
151 193 255
151 193 255
150 192 255
150 192 255
149 192 255
149 192 255
149 191 255
149 191 255
149 191 255
149 191 255
149 191 255
149 191 255
149 192 255
149 192 255
150 192 255
150 192 255
151 193 255
151 193 255
152 193 255
152 194 255
153 194 255
153 194 255
154 195 255
155 195 255
155 195 255
156 196 255
157 196 255
158 197 255
158 197 255
159 198 255
160 198 255
160 198 255
161 199 255
162 199 255
162 199 255
163 200 255
163 200 255
164 201 255
164 201 255
165 201 255
166 202 255
166 202 255
166 202 255
165 201 255
165 201 255
164 201 255
164 200 255
163 200 255
162 200 255
162 199 255
161 199 255
160 198 255
160 198 255
159 198 255
158 197 255
158 197 255
157 196 255
156 196 255
156 196 255
155 195 255
154 195 255
154 194 255
153 194 255
152 194 255
152 193 255
151 193 255
151 193 255
151 193 255
150 192 255
150 192 255
150 192 255
149 192 255
149 192 255
149 192 255
149 192 255
150 192 255
150 192 255
150 192 255
151 193 255
151 193 255
151 193 255
152 193 255
152 194 255
153 194 255
154 194 255
154 195 255
155 195 255
156 196 255
156 196 255
157 196 255
158 197 255
158 197 255
159 198 255
160 198 255
160 198 255
161 199 255
162 199 255
162 200 255
163 200 255
164 200 255
164 201 255
165 201 255
165 201 255
166 202 255
166 202 255
167 202 255
167 202 255
166 202 255
166 202 255
165 201 255
164 201 255
164 200 255
163 200 255
163 200 255
162 199 255
161 199 255
161 199 255
160 198 255
159 198 255
159 197 255
158 197 255
157 197 255
157 196 255
156 196 255
155 195 255
155 195 255
154 195 255
153 194 255
153 194 255
152 194 255
152 193 255
151 193 255
151 193 255
151 193 255
151 193 255
150 192 255
150 192 255
150 192 255
150 192 255
151 193 255
151 193 255
151 193 255
151 193 255
152 193 255
152 194 255
153 194 255
153 194 255
154 195 255
155 195 255
155 195 255
156 196 255
157 196 255
157 197 255
158 197 255
159 197 255
159 198 255
160 198 255
161 199 255
161 199 255
162 199 255
163 200 255
163 200 255
164 200 255
164 201 255
165 201 255
166 202 255
166 202 255
167 202 255
167 202 255
168 203 255
167 203 255
167 202 255
166 202 255
166 202 255
165 201 255
165 201 255
164 201 255
163 200 255
163 200 255
162 200 255
162 199 255
161 199 255
160 198 255
160 198 255
159 198 255
158 197 255
158 197 255
157 196 255
156 196 255
156 196 255
155 195 255
154 195 255
154 194 255
153 194 255
153 194 255
152 194 255
152 193 255
152 193 255
151 193 255
151 193 255
151 193 255
151 193 255
151 193 255
151 193 255
152 193 255
152 193 255
152 194 255
153 194 255
153 194 255
154 194 255
154 195 255
155 195 255
156 196 255
156 196 255
157 196 255
158 197 255
158 197 255
159 198 255
160 198 255
160 198 255
161 199 255
162 199 255
162 200 255
163 200 255
163 200 255
164 201 255
165 201 255
165 201 255
166 202 255
166 202 255
167 202 255
167 203 255
168 203 255
169 203 255
168 203 255
168 203 255
167 203 255
167 202 255
166 202 255
166 202 255
165 201 255
164 201 255
164 200 255
163 200 255
162 200 255
162 199 255
161 199 255
161 199 255
160 198 255
159 198 255
158 197 255
158 197 255
157 197 255
157 196 255
156 196 255
155 195 255
155 195 255
154 195 255
154 194 255
153 194 255
153 194 255
153 194 255
152 194 255
152 194 255
152 194 255
152 194 255
152 194 255
152 194 255
153 194 255
153 194 255
153 194 255
154 194 255
154 195 255
155 195 255
155 195 255
156 196 255
157 196 255
157 197 255
158 197 255
158 197 255
159 198 255
160 198 255
161 199 255
161 199 255
162 199 255
162 200 255
163 200 255
164 200 255
164 201 255
165 201 255
166 202 255
166 202 255
167 202 255
167 203 255
168 203 255
168 203 255
169 203 255
170 204 255
169 204 255
169 203 255
168 203 255
168 203 255
167 202 255
166 202 255
166 202 255
165 201 255
165 201 255
164 201 255
163 200 255
163 200 255
162 199 255
161 199 255
161 199 255
160 198 255
159 198 255
159 198 255
158 197 255
158 197 255
157 196 255
156 196 255
156 196 255
155 195 255
155 195 255
154 195 255
154 195 255
154 194 255
153 194 255
153 194 255
153 194 255
153 194 255
153 194 255
153 194 255
154 194 255
154 195 255
154 195 255
155 195 255
155 195 255
156 196 255
156 196 255
157 196 255
158 197 255
158 197 255
159 198 255
159 198 255
160 198 255
161 199 255
161 199 255
162 199 255
163 200 255
163 200 255
164 201 255
165 201 255
165 201 255
166 202 255
166 202 255
167 202 255
168 203 255
168 203 255
169 203 255
169 204 255
170 204 255
170 204 255
170 204 255
169 204 255
169 204 255
168 203 255
168 203 255
167 203 255
167 202 255
166 202 255
166 202 255
165 201 255
164 201 255
164 200 255
163 200 255
163 200 255
162 199 255
161 199 255
161 199 255
160 198 255
159 198 255
159 197 255
158 197 255
157 197 255
157 196 255
156 196 255
156 196 255
155 195 255
155 195 255
155 195 255
155 195 255
154 195 255
154 195 255
154 195 255
154 195 255
155 195 255
155 195 255
155 195 255
155 195 255
156 196 255
156 196 255
157 196 255
157 197 255
158 197 255
159 197 255
159 198 255
160 198 255
161 199 255
161 199 255
162 199 255
163 200 255
163 200 255
164 200 255
164 201 255
165 201 255
166 202 255
166 202 255
167 202 255
167 203 255
168 203 255
168 203 255
169 204 255
169 204 255
170 204 255
170 204 255
171 205 255
171 205 255
170 204 255
170 204 255
169 204 255
169 203 255
168 203 255
168 203 255
167 203 255
167 202 255
166 202 255
165 201 255
165 201 255
164 201 255
164 200 255
163 200 255
162 200 255
162 199 255
161 199 255
160 198 255
160 198 255
159 198 255
159 197 255
158 197 255
157 197 255
157 196 255
157 196 255
156 196 255
156 196 255
156 196 255
156 196 255
155 195 255
155 195 255
156 196 255
156 196 255
156 196 255
156 196 255
157 196 255
157 196 255
157 197 255
158 197 255
159 197 255
159 198 255
160 198 255
160 198 255
161 199 255
162 199 255
162 200 255
163 200 255
164 200 255
164 201 255
165 201 255
165 201 255
166 202 255
167 202 255
167 203 255
168 203 255
168 203 255
169 203 255
169 204 255
170 204 255
170 204 255
171 205 255
171 205 255
172 205 255
172 205 255
171 205 255
171 205 255
170 204 255
170 204 255
169 204 255
169 203 255
168 203 255
168 203 255
167 202 255
166 202 255
166 202 255
165 201 255
165 201 255
164 201 255
163 200 255
163 200 255
162 199 255
161 199 255
161 199 255
160 198 255
160 198 255
159 198 255
159 197 255
158 197 255
158 197 255
157 197 255
157 196 255
157 196 255
157 196 255
157 196 255
157 196 255
157 196 255
157 196 255
157 196 255
157 197 255
158 197 255
158 197 255
159 197 255
159 198 255
160 198 255
160 198 255
161 199 255
161 199 255
162 199 255
163 200 255
163 200 255
164 201 255
165 201 255
165 201 255
166 202 255
166 202 255
167 202 255
168 203 255
168 203 255
169 203 255
169 204 255
170 204 255
170 204 255
171 205 255
171 205 255
172 205 255
172 205 255
173 206 255
172 206 255
172 205 255
172 205 255
171 205 255
171 205 255
170 204 255
170 204 255
169 204 255
169 203 255
168 203 255
167 203 255
167 202 255
166 202 255
166 202 255
165 201 255
164 201 255
164 201 255
163 200 255
163 200 255
162 199 255
161 199 255
161 199 255
160 198 255
160 198 255
159 198 255
159 198 255
159 197 255
158 197 255
158 197 255
158 197 255
158 197 255
158 197 255
158 197 255
158 197 255
158 197 255
159 197 255
159 198 255
159 198 255
160 198 255
160 198 255
161 199 255
161 199 255
162 199 255
163 200 255
163 200 255
164 201 255
164 201 255
165 201 255
166 202 255
166 202 255
167 202 255
167 203 255
168 203 255
169 203 255
169 204 255
170 204 255
170 204 255
171 205 255
171 205 255
172 205 255
172 205 255
172 206 255
173 206 255
174 206 255
173 206 255
173 206 255
173 206 255
172 205 255
172 205 255
171 205 255
171 205 255
170 204 255
170 204 255
169 204 255
169 203 255
168 203 255
167 203 255
167 202 255
166 202 255
166 202 255
165 201 255
164 201 255
164 200 255
163 200 255
163 200 255
162 199 255
162 199 255
161 199 255
161 199 255
160 198 255
160 198 255
160 198 255
159 198 255
159 198 255
159 198 255
159 198 255
159 198 255
159 198 255
160 198 255
160 198 255
160 198 255
161 199 255
161 199 255
162 199 255
162 199 255
163 200 255
163 200 255
164 200 255
164 201 255
165 201 255
166 202 255
166 202 255
167 202 255
167 203 255
168 203 255
169 203 255
169 204 255
170 204 255
170 204 255
171 205 255
171 205 255
172 205 255
172 205 255
173 206 255
173 206 255
173 206 255
174 206 255
175 207 255
174 207 255
174 207 255
173 206 255
173 206 255
173 206 255
172 205 255
172 205 255
171 205 255
171 205 255
170 204 255
170 204 255
169 204 255
169 203 255
168 203 255
167 203 255
167 202 255
166 202 255
166 202 255
165 201 255
164 201 255
164 201 255
163 200 255
163 200 255
162 200 255
162 199 255
162 199 255
161 199 255
161 199 255
102 228 202
113 223 211
123 222 214
132 222 214
142 223 211
153 228 202
161 199 255
161 199 255
162 199 255
162 199 255
162 200 255
163 200 255
163 200 255
164 201 255
164 201 255
165 201 255
166 202 255
166 202 255
167 202 255
167 203 255
168 203 255
169 203 255
169 204 255
170 204 255
170 204 255
171 205 255
171 205 255
172 205 255
172 205 255
173 206 255
173 206 255
173 206 255
174 207 255
174 207 255
175 207 255
176 208 255
175 207 255
175 207 255
174 207 255
174 207 255
174 206 255
173 206 255
173 206 255
172 206 255
172 205 255
171 205 255
171 205 255
170 204 255
170 204 255
169 204 255
169 203 255
168 203 255
167 203 255
167 202 255
166 202 255
166 202 255
165 201 255
165 201 255
164 201 255
164 200 255
163 200 255
163 200 255
163 200 255
94 217 212
104 213 220
114 212 223
123 211 225
132 211 225
141 212 223
151 213 220
161 217 212
163 200 255
163 200 255
163 200 255
164 200 255
164 201 255
165 201 255
165 201 255
166 202 255
166 202 255
167 202 255
167 203 255
168 203 255
169 203 255
169 204 255
170 204 255
170 204 255
171 205 255
171 205 255
172 205 255
172 206 255
173 206 255
173 206 255
174 206 255
174 207 255
174 207 255
175 207 255
175 207 255
176 208 255
176 208 255
176 208 255
176 208 255
175 207 255
175 207 255
175 207 255
174 207 255
174 206 255
173 206 255
173 206 255
172 206 255
172 205 255
171 205 255
171 205 255
170 204 255
170 204 255
169 204 255
169 203 255
168 203 255
168 203 255
167 202 255
167 202 255
166 202 255
166 202 255
165 201 255
165 201 255
164 201 255
85 210 215
96 206 223
105 204 228
115 203 230
123 202 231
132 202 231
140 203 230
150 204 228
159 206 223
170 210 215
164 201 255
165 201 255
165 201 255
166 202 255
166 202 255
167 202 255
167 202 255
168 203 255
168 203 255
169 203 255
169 204 255
170 204 255
170 204 255
171 205 255
171 205 255
172 205 255
172 206 255
173 206 255
173 206 255
174 206 255
174 207 255
175 207 255
175 207 255
175 207 255
176 208 255
176 208 255
176 208 255
177 209 255
177 208 255
177 208 255
176 208 255
176 208 255
176 208 255
175 207 255
175 207 255
174 207 255
174 207 255
174 206 255
173 206 255
173 206 255
172 205 255
172 205 255
171 205 255
171 205 255
170 204 255
169 204 255
169 204 255
168 203 255
168 203 255
167 203 255
167 202 255
167 202 255
166 202 255
75 205 215
87 201 224
97 198 230
106 197 233
115 196 235
123 195 236
132 195 236
140 196 235
149 197 233
158 198 230
168 201 224
180 205 215
166 202 255
167 202 255
167 202 255
167 203 255
168 203 255
168 203 255
169 204 255
169 204 255
170 204 255
171 205 255
171 205 255
172 205 255
172 205 255
173 206 255
173 206 255
174 206 255
174 207 255
174 207 255
175 207 255
175 207 255
176 208 255
176 208 255
176 208 255
177 208 255
177 208 255
177 209 255
178 209 255
178 209 255
178 209 255
177 209 255
177 208 255
177 208 255
176 208 255
176 208 255
176 208 255
175 207 255
175 207 255
174 207 255
174 206 255
173 206 255
173 206 255
172 206 255
172 205 255
171 205 255
171 205 255
170 204 255
170 204 255
169 204 255
169 204 255
168 203 255
168 203 255
64 202 210
78 196 223
89 193 230
98 191 234
107 190 237
115 190 239
123 189 240
132 189 240
140 190 239
148 190 237
157 191 234
166 193 230
177 196 223
191 202 210
168 203 255
168 203 255
169 204 255
169 204 255
170 204 255
170 204 255
171 205 255
171 205 255
172 205 255
172 206 255
173 206 255
173 206 255
174 206 255
174 207 255
175 207 255
175 207 255
176 208 255
176 208 255
176 208 255
177 208 255
177 208 255
177 209 255
178 209 255
178 209 255
178 209 255
179 210 255
179 210 255
179 209 255
178 209 255
178 209 255
178 209 255
177 209 255
177 208 255
177 208 255
176 208 255
176 208 255
175 207 255
175 207 255
175 207 255
174 207 255
174 206 255
173 206 255
173 206 255
172 206 255
172 205 255
171 205 255
171 205 255
170 204 255
170 204 255
170 204 255
68 192 220
80 189 229
90 187 235
99 185 238
107 184 240
116 184 242
124 183 243
131 183 243
139 184 242
148 184 240
156 185 238
165 187 235
175 189 229
187 192 220
170 204 255
170 204 255
170 204 255
171 205 255
171 205 255
172 205 255
172 206 255
173 206 255
173 206 255
174 206 255
174 207 255
175 207 255
175 207 255
175 207 255
176 208 255
176 208 255
177 208 255
177 208 255
177 209 255
178 209 255
178 209 255
178 209 255
179 209 255
179 210 255
179 210 255
180 210 255
180 210 255
180 210 255
179 210 255
179 210 255
179 209 255
178 209 255
178 209 255
178 209 255
177 209 255
177 208 255
177 208 255
176 208 255
176 208 255
175 207 255
175 207 255
175 207 255
174 207 255
174 206 255
173 206 255
173 206 255
172 206 255
172 205 255
171 205 255
55 190 213
70 185 226
81 182 233
91 181 238
99 180 241
108 179 243
116 178 244
124 178 245
131 178 245
139 178 244
147 179 243
156 180 241
164 181 238
174 182 233
185 185 226
200 190 213
171 205 255
172 205 255
172 206 255
173 206 255
173 206 255
174 206 255
174 207 255
175 207 255
175 207 255
175 207 255
176 208 255
176 208 255
177 208 255
177 208 255
177 209 255
178 209 255
178 209 255
178 209 255
179 209 255
179 210 255
179 210 255
180 210 255
180 210 255
180 210 255
181 211 255
181 211 255
181 211 255
180 210 255
180 210 255
180 210 255
180 210 255
179 210 255
179 210 255
179 209 255
178 209 255
178 209 255
178 209 255
177 208 255
177 208 255
176 208 255
176 208 255
176 208 255
175 207 255
175 207 255
174 207 255
174 207 255
173 206 255
173 206 255
59 182 221
71 178 231
82 176 237
91 175 241
100 174 243
108 174 245
116 173 247
124 173 247
131 173 247
139 173 247
147 174 245
155 174 243
164 175 241
173 176 237
184 178 231
196 182 221
173 206 255
173 206 255
174 207 255
174 207 255
175 207 255
175 207 255
176 208 255
176 208 255
176 208 255
177 208 255
177 208 255
178 209 255
178 209 255
178 209 255
179 209 255
179 210 255
179 210 255
180 210 255
180 210 255
180 210 255
180 210 255
181 211 255
181 211 255
181 211 255
182 211 255
182 211 255
182 211 255
181 211 255
181 211 255
181 211 255
181 211 255
180 210 255
180 210 255
180 210 255
179 210 255
179 210 255
179 209 255
178 209 255
178 209 255
178 209 255
177 209 255
177 208 255
177 208 255
176 208 255
176 208 255
175 207 255
175 207 255
43 180 208
61 175 226
73 173 234
83 171 239
92 170 243
100 169 245
108 169 247
116 168 248
124 168 249
131 168 249
139 168 248
147 169 247
155 169 245
163 170 243
172 171 239
182 173 234
194 175 226
212 180 208
175 207 255
175 207 255
176 208 255
176 208 255
177 208 255
177 208 255
177 209 255
178 209 255
178 209 255
178 209 255
179 209 255
179 210 255
179 210 255
180 210 255
180 210 255
180 210 255
181 211 255
181 211 255
181 211 255
181 211 255
182 211 255
182 211 255
182 211 255
183 212 255
183 212 255
183 212 255
182 212 255
182 212 255
182 211 255
182 211 255
182 211 255
181 211 255
181 211 255
181 211 255
180 210 255
180 210 255
180 210 255
179 210 255
179 210 255
179 209 255
178 209 255
178 209 255
178 209 255
177 209 255
177 208 255
177 208 255
47 173 217
62 169 230
74 167 237
83 166 241
92 165 245
101 164 247
108 164 249
116 164 250
124 163 250
131 163 250
139 164 250
147 164 249
154 164 247
163 165 245
172 166 241
181 167 237
193 169 230
208 173 217
177 208 255
177 208 255
177 209 255
178 209 255
178 209 255
178 209 255
179 209 255
179 210 255
179 210 255
180 210 255
180 210 255
180 210 255
181 211 255
181 211 255
181 211 255
182 211 255
182 211 255
182 211 255
182 212 255
182 212 255
183 212 255
183 212 255
183 212 255
184 213 255
184 213 255
184 212 255
184 212 255
183 212 255
183 212 255
183 212 255
183 212 255
182 212 255
182 212 255
182 211 255
182 211 255
181 211 255
181 211 255
181 211 255
181 211 255
180 210 255
180 210 255
180 210 255
179 210 255
179 210 255
179 209 255
178 209 255
50 166 222
64 163 232
74 162 239
84 161 243
93 160 246
101 160 248
109 159 250
116 159 251
124 159 252
131 159 252
139 159 251
146 159 250
154 160 248
162 160 246
171 161 243
181 162 239
191 163 232
205 166 222
178 209 255
179 209 255
179 210 255
179 210 255
180 210 255
180 210 255
180 210 255
181 211 255
181 211 255
181 211 255
181 211 255
182 211 255
182 211 255
182 212 255
182 212 255
183 212 255
183 212 255
183 212 255
183 212 255
184 212 255
184 212 255
184 213 255
184 213 255
185 213 255
185 213 255
185 213 255
185 213 255
184 213 255
184 213 255
184 213 255
184 212 255
184 212 255
183 212 255
183 212 255
183 212 255
183 212 255
182 212 255
182 212 255
182 211 255
182 211 255
181 211 255
181 211 255
181 211 255
181 211 255
180 210 255
29 165 201
52 160 225
64 158 235
75 157 240
84 156 245
93 156 248
101 155 250
109 155 251
116 155 252
124 155 253
131 155 253
139 155 252
146 155 251
154 155 250
162 156 248
171 156 245
180 157 240
191 158 235
203 160 225
226 165 201
180 210 255
181 211 255
181 211 255
181 211 255
181 211 255
182 211 255
182 211 255
182 212 255
182 212 255
183 212 255
183 212 255
183 212 255
183 212 255
184 212 255
184 212 255
184 213 255
184 213 255
184 213 255
185 213 255
185 213 255
185 213 255
185 213 255
186 214 255
186 214 255
186 214 255
186 214 255
185 213 255
185 213 255
185 213 255
185 213 255
185 213 255
185 213 255
184 213 255
184 213 255
184 213 255
184 212 255
184 212 255
183 212 255
183 212 255
183 212 255
183 212 255
182 212 255
182 212 255
182 211 255
35 158 210
53 155 228
65 153 236
76 152 242
85 152 246
93 151 249
101 151 251
109 150 252
116 150 253
124 150 253
131 150 253
139 150 253
146 150 252
154 151 251
162 151 249
170 152 246
179 152 242
190 153 236
202 155 228
220 158 210
182 211 255
182 212 255
182 212 255
183 212 255
183 212 255
183 212 255
183 212 255
184 212 255
184 212 255
184 213 255
184 213 255
184 213 255
185 213 255
185 213 255
185 213 255
185 213 255
185 213 255
185 213 255
186 214 255
186 214 255
186 214 255
186 214 255
187 214 255
187 214 255
187 214 255
187 214 255
187 214 255
186 214 255
186 214 255
186 214 255
186 214 255
186 214 255
186 214 255
186 214 255
185 213 255
185 213 255
185 213 255
185 213 255
185 213 255
184 213 255
184 213 255
184 213 255
184 213 255
184 212 255
37 152 215
54 149 230
66 148 238
76 148 243
85 147 247
93 147 249
101 146 251
109 146 253
117 146 254
124 146 254
131 146 254
138 146 254
146 146 253
154 146 251
162 147 249
170 147 247
179 148 243
189 148 238
201 149 230
218 152 215
184 212 255
184 213 255
184 213 255
184 213 255
184 213 255
185 213 255
185 213 255
185 213 255
185 213 255
185 213 255
186 214 255
186 214 255
186 214 255
186 214 255
186 214 255
186 214 255
186 214 255
187 214 255
187 214 255
187 214 255
187 214 255
187 214 255
188 215 255
188 215 255
188 215 255
188 215 255
188 215 255
188 215 255
187 215 255
187 215 255
187 215 255
187 214 255
187 214 255
187 214 255
187 214 255
187 214 255
186 214 255
186 214 255
186 214 255
186 214 255
186 214 255
186 214 255
186 214 255
185 213 255
39 146 218
54 144 231
66 144 239
76 143 244
85 143 247
94 142 250
102 142 252
109 142 253
117 142 254
124 142 255
131 142 255
138 142 254
146 142 253
153 142 252
161 142 250
170 143 247
179 143 244
189 144 239
201 144 231
216 146 218
185 213 255
186 214 255
186 214 255
186 214 255
186 214 255
186 214 255
186 214 255
186 214 255
187 214 255
187 214 255
187 214 255
187 214 255
187 214 255
187 215 255
187 215 255
187 215 255
188 215 255
188 215 255
188 215 255
188 215 255
188 215 255
188 215 255
189 216 255
189 216 255
189 216 255
189 215 255
189 215 255
189 215 255
189 215 255
189 215 255
188 215 255
188 215 255
188 215 255
188 215 255
188 215 255
188 215 255
188 215 255
188 215 255
188 215 255
188 215 255
187 215 255
187 215 255
187 215 255
187 214 255
40 140 220
55 140 232
67 139 239
76 139 244
85 138 248
94 138 251
102 138 252
109 138 254
117 138 255
124 138 255
131 138 255
138 138 255
146 138 254
153 138 252
161 138 251
170 138 248
179 139 244
188 139 239
200 140 232
215 140 220
187 214 255
187 215 255
187 215 255
187 215 255
188 215 255
188 215 255
188 215 255
188 215 255
188 215 255
188 215 255
188 215 255
188 215 255
188 215 255
188 215 255
189 215 255
189 215 255
189 215 255
189 215 255
189 215 255
189 216 255
189 216 255
189 216 255
190 216 255
190 216 255
190 216 255
190 216 255
190 216 255
190 216 255
190 216 255
190 216 255
190 216 255
190 216 255
190 216 255
190 216 255
189 216 255
189 216 255
189 216 255
189 216 255
189 216 255
189 216 255
189 216 255
189 216 255
189 216 255
189 216 255
40 135 221
55 135 233
67 134 240
77 134 245
86 134 248
94 134 251
102 134 253
109 134 254
117 134 255
124 134 255
131 134 255
138 134 255
146 134 254
153 134 253
161 134 251
169 134 248
178 134 245
188 134 240
200 135 233
215 135 221
189 216 255
189 216 255
189 216 255
189 216 255
189 216 255
189 216 255
189 216 255
189 216 255
189 216 255
189 216 255
190 216 255
190 216 255
190 216 255
190 216 255
190 216 255
190 216 255
190 216 255
190 216 255
190 216 255
190 216 255
190 216 255
190 216 255
191 217 255
191 217 255
191 217 255
191 217 255
191 217 255
191 217 255
191 217 255
191 217 255
191 217 255
191 217 255
191 217 255
191 217 255
191 217 255
191 217 255
191 217 255
191 217 255
191 217 255
191 217 255
191 217 255
191 217 255
191 217 255
191 217 255
41 130 221
55 130 233
67 130 240
77 130 245
86 130 248
94 130 251
102 130 253
109 130 254
117 130 255
124 130 255
131 130 255
138 130 255
146 130 254
153 130 253
161 130 251
169 130 248
178 130 245
188 130 240
200 130 233
214 130 221
191 217 255
191 217 255
191 217 255
191 217 255
191 217 255
191 217 255
191 217 255
191 217 255
191 217 255
191 217 255
191 217 255
191 217 255
191 217 255
191 217 255
191 217 255
191 217 255
191 217 255
191 217 255
191 217 255
191 217 255
191 217 255
191 217 255
192 217 255
192 217 255
192 217 255
192 217 255
192 217 255
192 217 255
192 217 255
192 217 255
192 217 255
192 217 255
192 217 255
192 217 255
192 218 255
192 218 255
192 218 255
192 218 255
192 218 255
192 218 255
192 218 255
192 218 255
192 218 255
192 218 255
41 125 221
55 125 233
67 125 240
77 125 245
86 125 248
94 125 251
102 125 253
109 125 254
117 125 255
124 125 255
131 125 255
138 125 255
146 125 254
153 125 253
161 125 251
169 125 248
178 125 245
188 125 240
200 125 233
214 125 221
192 218 255
192 218 255
192 218 255
192 218 255
192 218 255
192 218 255
192 218 255
192 218 255
192 218 255
192 218 255
192 217 255
192 217 255
192 217 255
192 217 255
192 217 255
192 217 255
192 217 255
192 217 255
192 217 255
192 217 255
192 217 255
192 217 255
193 218 255
193 218 255
193 218 255
193 218 255
193 218 255
193 218 255
193 218 255
193 218 255
193 218 255
193 218 255
193 218 255
193 218 255
194 218 255
194 218 255
194 218 255
194 218 255
194 218 255
194 219 255
194 219 255
194 219 255
194 219 255
194 219 255
40 120 221
55 120 233
67 121 240
77 121 245
86 121 248
94 121 251
102 121 253
109 121 254
117 121 255
124 121 255
131 121 255
138 121 255
146 121 254
153 121 253
161 121 251
169 121 248
178 121 245
188 121 240
200 120 233
215 120 221
194 219 255
194 219 255
194 219 255
194 219 255
194 219 255
194 218 255
194 218 255
194 218 255
194 218 255
194 218 255
193 218 255
193 218 255
193 218 255
193 218 255
193 218 255
193 218 255
193 218 255
193 218 255
193 218 255
193 218 255
193 218 255
193 218 255
194 219 255
194 219 255
194 219 255
194 219 255
194 219 255
194 219 255
194 219 255
194 219 255
195 219 255
195 219 255
195 219 255
195 219 255
195 219 255
195 219 255
195 219 255
195 219 255
195 219 255
195 219 255
196 220 255
196 220 255
196 220 255
196 220 255
40 115 220
55 115 232
67 116 239
76 116 244
85 117 248
94 117 251
102 117 252
109 117 254
117 117 255
124 117 255
131 117 255
138 117 255
146 117 254
153 117 252
161 117 251
170 117 248
179 116 244
188 116 239
200 115 232
215 115 220
196 220 255
196 220 255
196 220 255
196 220 255
195 219 255
195 219 255
195 219 255
195 219 255
195 219 255
195 219 255
195 219 255
195 219 255
195 219 255
195 219 255
194 219 255
194 219 255
194 219 255
194 219 255
194 219 255
194 219 255
194 219 255
194 219 255
195 219 255
195 219 255
195 219 255
195 219 255
195 219 255
195 219 255
196 220 255
196 220 255
196 220 255
196 220 255
196 220 255
196 220 255
196 220 255
196 220 255
197 220 255
197 220 255
197 220 255
197 220 255
197 220 255
197 221 255
121 255 119
122 255 120
39 109 218
54 111 231
66 111 239
76 112 244
85 112 247
94 113 250
102 113 252
109 113 253
117 113 254
124 113 255
131 113 255
138 113 254
146 113 253
153 113 252
161 113 250
170 112 247
179 112 244
189 111 239
201 111 231
216 109 218
133 255 120
134 255 119
197 221 255
197 220 255
197 220 255
197 220 255
197 220 255
197 220 255
196 220 255
196 220 255
196 220 255
196 220 255
196 220 255
196 220 255
196 220 255
196 220 255
195 219 255
195 219 255
195 219 255
195 219 255
195 219 255
195 219 255
196 220 255
196 220 255
196 220 255
196 220 255
196 220 255
197 220 255
197 220 255
197 220 255
197 220 255
197 220 255
197 221 255
197 221 255
120 255 122
121 255 122
121 255 123
122 255 123
123 255 123
123 255 123
123 255 123
124 255 123
124 255 124
124 255 124
37 103 215
54 106 230
66 107 238
76 107 243
85 108 247
93 108 249
101 109 251
109 109 253
117 109 254
124 109 254
131 109 254
138 109 254
146 109 253
154 109 251
162 108 249
170 108 247
179 107 243
189 107 238
201 106 230
218 103 215
131 255 124
131 255 124
131 255 123
132 255 123
132 255 123
132 255 123
133 255 123
134 255 123
134 255 122
135 255 122
197 221 255
197 221 255
197 220 255
197 220 255
197 220 255
197 220 255
197 220 255
196 220 255
196 220 255
196 220 255
196 220 255
196 220 255
197 220 255
197 220 255
197 221 255
197 221 255
198 221 255
119 255 123
120 255 123
120 255 124
121 255 124
121 255 124
122 255 124
122 255 124
123 255 124
123 255 124
123 255 125
124 255 125
124 255 125
124 255 125
124 255 125
125 255 125
125 255 125
125 255 125
35 97 210
53 100 228
65 102 236
76 103 242
85 103 246
93 104 249
101 104 251
109 105 252
116 105 253
124 105 253
131 105 253
139 105 253
146 105 252
154 104 251
162 104 249
170 103 246
179 103 242
190 102 236
202 100 228
220 97 210
130 255 125
130 255 125
130 255 125
131 255 125
131 255 125
131 255 125
131 255 125
132 255 125
132 255 124
132 255 124
133 255 124
133 255 124
134 255 124
134 255 124
135 255 124
135 255 123
136 255 123
198 221 255
197 221 255
197 221 255
197 220 255
197 220 255
119 255 124
120 255 124
121 255 125
121 255 125
121 255 125
122 255 125
122 255 125
122 255 125
123 255 125
123 255 125
123 255 125
123 255 125
124 255 125
124 255 125
124 255 125
124 255 125
125 255 125
125 255 125
125 255 125
125 255 126
125 255 126
126 255 126
29 90 201
52 95 225
64 97 235
75 98 240
84 99 245
93 99 248
101 100 250
109 100 251
116 100 252
124 100 253
131 100 253
139 100 252
146 100 251
154 100 250
162 99 248
171 99 245
180 98 240
191 97 235
203 95 225
226 90 201
129 255 126
130 255 126
130 255 126
130 255 125
130 255 125
130 255 125
131 255 125
131 255 125
131 255 125
131 255 125
132 255 125
132 255 125
132 255 125
132 255 125
133 255 125
133 255 125
133 255 125
134 255 125
134 255 125
134 255 125
135 255 124
136 255 124
122 255 125
122 255 126
122 255 126
122 255 126
123 255 126
123 255 126
123 255 126
123 255 126
124 255 126
124 255 126
124 255 126
124 255 126
124 255 126
124 255 126
125 255 126
125 255 126
125 255 126
125 255 126
125 255 126
126 255 126
126 255 126
126 255 126
126 255 126
50 89 222
64 92 232
74 93 239
84 94 243
93 95 246
101 95 248
109 96 250
116 96 251
124 96 252
131 96 252
139 96 251
146 96 250
154 95 248
162 95 246
171 94 243
181 93 239
191 92 232
205 89 222
129 255 126
129 255 126
129 255 126
129 255 126
130 255 126
130 255 126
130 255 126
130 255 126
130 255 126
131 255 126
131 255 126
131 255 126
131 255 126
131 255 126
131 255 126
132 255 126
132 255 126
132 255 126
132 255 126
133 255 126
133 255 126
133 255 126
133 255 125
123 255 126
123 255 126
123 255 126
123 255 126
123 255 126
124 255 126
124 255 126
124 255 126
124 255 126
124 255 126
124 255 126
125 255 126
125 255 126
125 255 126
125 255 126
125 255 126
125 255 126
125 255 126
126 255 126
126 255 126
126 255 126
126 255 126
126 255 126
47 82 217
62 86 230
74 88 237
83 89 241
92 90 245
101 91 247
108 91 249
116 91 250
124 92 250
131 92 250
139 91 250
147 91 249
154 91 247
163 90 245
172 89 241
181 88 237
193 86 230
208 82 217
129 255 126
129 255 126
129 255 126
129 255 126
129 255 126
130 255 126
130 255 126
130 255 126
130 255 126
130 255 126
130 255 126
130 255 126
131 255 126
131 255 126
131 255 126
131 255 126
131 255 126
131 255 126
132 255 126
132 255 126
132 255 126
132 255 126
132 255 126
123 255 126
123 255 126
124 255 126
124 255 126
124 255 126
124 255 126
124 255 127
124 255 127
125 255 127
125 255 127
125 255 127
125 255 127
125 255 127
125 255 127
125 255 127
125 255 127
126 255 127
126 255 127
126 255 127
126 255 127
126 255 127
126 255 127
126 255 127
43 75 208
61 80 226
73 82 234
83 84 239
92 85 243
100 86 245
108 86 247
116 87 248
124 87 249
131 87 249
139 87 248
147 86 247
155 86 245
163 85 243
172 84 239
182 82 234
194 80 226
212 75 208
129 255 127
129 255 127
129 255 127
129 255 127
129 255 127
129 255 127
129 255 127
130 255 127
130 255 127
130 255 127
130 255 127
130 255 127
130 255 127
130 255 127
130 255 127
131 255 127
131 255 127
131 255 126
131 255 126
131 255 126
131 255 126
132 255 126
132 255 126
124 255 127
124 255 127
124 255 127
124 255 127
124 255 127
124 255 127
125 255 127
125 255 127
125 255 127
125 255 127
125 255 127
125 255 127
125 255 127
125 255 127
126 255 127
126 255 127
126 255 127
126 255 127
126 255 127
126 255 127
126 255 127
126 255 127
126 255 127
127 255 127
59 73 221
71 77 231
82 79 237
91 80 241
100 81 243
108 81 245
116 82 247
124 82 247
131 82 247
139 82 247
147 81 245
155 81 243
164 80 241
173 79 237
184 77 231
196 73 221
128 255 127
129 255 127
129 255 127
129 255 127
129 255 127
129 255 127
129 255 127
129 255 127
129 255 127
129 255 127
130 255 127
130 255 127
130 255 127
130 255 127
130 255 127
130 255 127
130 255 127
130 255 127
131 255 127
131 255 127
131 255 127
131 255 127
131 255 127
131 255 127
124 255 127
124 255 127
124 255 127
125 255 127
125 255 127
125 255 127
125 255 127
125 255 127
125 255 127
125 255 127
125 255 127
125 255 127
126 255 127
126 255 127
126 255 127
126 255 127
126 255 127
126 255 127
126 255 127
126 255 127
126 255 127
126 255 127
127 255 127
127 255 127
55 65 213
70 70 226
81 73 233
91 74 238
99 75 241
108 76 243
116 77 244
124 77 245
131 77 245
139 77 244
147 76 243
156 75 241
164 74 238
174 73 233
185 70 226
200 65 213
128 255 127
128 255 127
129 255 127
129 255 127
129 255 127
129 255 127
129 255 127
129 255 127
129 255 127
129 255 127
129 255 127
129 255 127
130 255 127
130 255 127
130 255 127
130 255 127
130 255 127
130 255 127
130 255 127
130 255 127
130 255 127
131 255 127
131 255 127
131 255 127
124 255 127
125 255 127
125 255 127
125 255 127
125 255 127
125 255 127
125 255 127
125 255 127
125 255 127
125 255 127
125 255 127
126 255 127
126 255 127
126 255 127
126 255 127
126 255 127
126 255 127
126 255 127
126 255 127
126 255 127
126 255 127
127 255 127
127 255 127
127 255 127
127 255 127
68 63 220
80 66 229
90 68 235
99 70 238
107 71 240
116 71 242
124 72 243
131 72 243
139 71 242
148 71 240
156 70 238
165 68 235
175 66 229
187 63 220
128 255 127
128 255 127
128 255 127
128 255 127
129 255 127
129 255 127
129 255 127
129 255 127
129 255 127
129 255 127
129 255 127
129 255 127
129 255 127
129 255 127
130 255 127
130 255 127
130 255 127
130 255 127
130 255 127
130 255 127
130 255 127
130 255 127
130 255 127
130 255 127
131 255 127
125 255 127
125 255 127
125 255 127
125 255 127
125 255 127
125 255 127
125 255 127
125 255 127
125 255 127
126 255 127
126 255 127
126 255 127
126 255 127
126 255 127
126 255 127
126 255 127
126 255 127
126 255 127
126 255 127
126 255 127
127 255 127
127 255 127
127 255 127
127 255 127
127 255 127
64 53 210
78 59 223
89 62 230
98 64 234
107 65 237
115 65 239
123 66 240
132 66 240
140 65 239
148 65 237
157 64 234
166 62 230
177 59 223
191 53 210
128 255 127
128 255 127
128 255 127
128 255 127
128 255 127
129 255 127
129 255 127
129 255 127
129 255 127
129 255 127
129 255 127
129 255 127
129 255 127
129 255 127
129 255 127
129 255 127
130 255 127
130 255 127
130 255 127
130 255 127
130 255 127
130 255 127
130 255 127
130 255 127
130 255 127
125 255 127
125 255 127
125 255 127
125 255 127
125 255 127
125 255 127
125 255 127
126 255 127
126 255 127
126 255 127
126 255 127
126 255 127
126 255 127
126 255 127
126 255 127
126 255 127
126 255 127
126 255 127
126 255 127
127 255 127
127 255 127
127 255 127
127 255 127
127 255 127
127 255 127
127 255 127
75 50 215
87 54 224
97 57 230
106 58 233
115 59 235
123 60 236
132 60 236
140 59 235
149 58 233
158 57 230
168 54 224
180 50 215
128 255 127
128 255 127
128 255 127
128 255 127
128 255 127
128 255 127
128 255 127
129 255 127
129 255 127
129 255 127
129 255 127
129 255 127
129 255 127
129 255 127
129 255 127
129 255 127
129 255 127
129 255 127
129 255 127
130 255 127
130 255 127
130 255 127
130 255 127
130 255 127
130 255 127
130 255 127
125 255 127
125 255 127
125 255 127
125 255 127
125 255 127
126 255 127
126 255 127
126 255 127
126 255 127
126 255 127
126 255 127
126 255 127
126 255 127
126 255 127
126 255 127
126 255 127
126 255 127
126 255 127
127 255 127
127 255 127
127 255 127
127 255 127
127 255 127
127 255 127
127 255 127
127 255 127
127 255 127
85 45 215
96 49 223
105 51 228
115 52 230
123 53 231
132 53 231
140 52 230
150 51 228
159 49 223
170 45 215
128 255 127
128 255 127
128 255 127
128 255 127
128 255 127
128 255 127
128 255 127
128 255 127
128 255 127
129 255 127
129 255 127
129 255 127
129 255 127
129 255 127
129 255 127
129 255 127
129 255 127
129 255 127
129 255 127
129 255 127
129 255 127
129 255 127
130 255 127
130 255 127
130 255 127
130 255 127
130 255 127
125 255 128
125 255 128
125 255 128
125 255 128
126 255 128
126 255 128
126 255 128
126 255 128
126 255 128
126 255 128
126 255 128
126 255 128
126 255 128
126 255 128
126 255 128
126 255 128
126 255 128
126 255 128
127 255 128
127 255 128
127 255 128
127 255 128
127 255 128
127 255 128
127 255 128
127 255 128
127 255 128
127 255 128
94 38 212
104 42 220
114 43 223
123 44 225
132 44 225
141 43 223
151 42 220
161 38 212
128 255 128
128 255 128
128 255 128
128 255 128
128 255 128
128 255 128
128 255 128
128 255 128
128 255 128
128 255 128
129 255 128
129 255 128
129 255 128
129 255 128
129 255 128
129 255 128
129 255 128
129 255 128
129 255 128
129 255 128
129 255 128
129 255 128
129 255 128
129 255 128
130 255 128
130 255 128
130 255 128
130 255 128
125 255 128
125 255 128
126 255 128
126 255 128
126 255 128
126 255 128
126 255 128
126 255 128
126 255 128
126 255 128
126 255 128
126 255 128
126 255 128
126 255 128
126 255 128
126 255 128
126 255 128
127 255 128
127 255 128
127 255 128
127 255 128
127 255 128
127 255 128
127 255 128
127 255 128
127 255 128
127 255 128
127 255 128
127 255 128
102 27 202
113 32 211
123 33 214
132 33 214
142 32 211
153 27 202
128 255 128
128 255 128
128 255 128
128 255 128
128 255 128
128 255 128
128 255 128
128 255 128
128 255 128
128 255 128
128 255 128
128 255 128
129 255 128
129 255 128
129 255 128
129 255 128
129 255 128
129 255 128
129 255 128
129 255 128
129 255 128
129 255 128
129 255 128
129 255 128
129 255 128
129 255 128
129 255 128
130 255 128
130 255 128
126 255 128
126 255 128
126 255 128
126 255 128
126 255 128
126 255 128
126 255 128
126 255 128
126 255 128
126 255 128
126 255 128
126 255 128
126 255 128
126 255 128
126 255 128
126 255 128
127 255 128
127 255 128
127 255 128
127 255 128
127 255 128
127 255 128
127 255 128
127 255 128
127 255 128
127 255 128
127 255 128
127 255 128
127 255 128
127 255 128
127 255 128
127 255 128
128 255 128
128 255 128
128 255 128
128 255 128
128 255 128
128 255 128
128 255 128
128 255 128
128 255 128
128 255 128
128 255 128
128 255 128
128 255 128
128 255 128
128 255 128
128 255 128
129 255 128
129 255 128
129 255 128
129 255 128
129 255 128
129 255 128
129 255 128
129 255 128
129 255 128
129 255 128
129 255 128
129 255 128
129 255 128
129 255 128
129 255 128
129 255 128
126 255 128
126 255 128
126 255 128
126 255 128
126 255 128
126 255 128
126 255 128
126 255 128
126 255 128
126 255 128
126 255 128
126 255 128
126 255 128
126 255 128
126 255 128
127 255 128
127 255 128
127 255 128
127 255 128
127 255 128
127 255 128
127 255 128
127 255 128
127 255 128
127 255 128
127 255 128
127 255 128
127 255 128
127 255 128
127 255 128
127 255 128
127 255 128
128 255 128
128 255 128
128 255 128
128 255 128
128 255 128
128 255 128
128 255 128
128 255 128
128 255 128
128 255 128
128 255 128
128 255 128
128 255 128
128 255 128
128 255 128
128 255 128
128 255 128
129 255 128
129 255 128
129 255 128
129 255 128
129 255 128
129 255 128
129 255 128
129 255 128
129 255 128
129 255 128
129 255 128
129 255 128
129 255 128
129 255 128
129 255 128
126 255 128
126 255 128
126 255 128
126 255 128
126 255 128
126 255 128
126 255 128
126 255 128
126 255 128
126 255 128
126 255 128
126 255 128
126 255 128
126 255 128
127 255 128
127 255 128
127 255 128
127 255 128
127 255 128
127 255 128
127 255 128
127 255 128
127 255 128
127 255 128
127 255 128
127 255 128
127 255 128
127 255 128
127 255 128
127 255 128
127 255 128
127 255 128
128 255 128
128 255 128
128 255 128
128 255 128
128 255 128
128 255 128
128 255 128
128 255 128
128 255 128
128 255 128
128 255 128
128 255 128
128 255 128
128 255 128
128 255 128
128 255 128
128 255 128
128 255 128
129 255 128
129 255 128
129 255 128
129 255 128
129 255 128
129 255 128
129 255 128
129 255 128
129 255 128
129 255 128
129 255 128
129 255 128
129 255 128
129 255 128
126 255 128
126 255 128
126 255 128
126 255 128
126 255 128
126 255 128
126 255 128
126 255 128
126 255 128
126 255 128
126 255 128
126 255 128
126 255 128
127 255 128
127 255 128
127 255 128
127 255 128
127 255 128
127 255 128
127 255 128
127 255 128
127 255 128
127 255 128
127 255 128
127 255 128
127 255 128
127 255 128
127 255 128
127 255 128
127 255 128
127 255 128
127 255 128
128 255 128
128 255 128
128 255 128
128 255 128
128 255 128
128 255 128
128 255 128
128 255 128
128 255 128
128 255 128
128 255 128
128 255 128
128 255 128
128 255 128
128 255 128
128 255 128
128 255 128
128 255 128
128 255 128
129 255 128
129 255 128
129 255 128
129 255 128
129 255 128
129 255 128
129 255 128
129 255 128
129 255 128
129 255 128
129 255 128
129 255 128
129 255 128
126 255 128
126 255 128
126 255 128
126 255 128
126 255 128
126 255 128
126 255 128
126 255 128
126 255 128
126 255 128
126 255 128
126 255 128
127 255 128
127 255 128
127 255 128
127 255 128
127 255 128
127 255 128
127 255 128
127 255 128
127 255 128
127 255 128
127 255 128
127 255 128
127 255 128
127 255 128
127 255 128
127 255 128
127 255 128
127 255 128
127 255 128
127 255 128
128 255 128
128 255 128
128 255 128
128 255 128
128 255 128
128 255 128
128 255 128
128 255 128
128 255 128
128 255 128
128 255 128
128 255 128
128 255 128
128 255 128
128 255 128
128 255 128
128 255 128
128 255 128
128 255 128
128 255 128
129 255 128
129 255 128
129 255 128
129 255 128
129 255 128
129 255 128
129 255 128
129 255 128
129 255 128
129 255 128
129 255 128
129 255 128
126 255 128
126 255 128
126 255 128
126 255 128
126 255 128
126 255 128
126 255 128
126 255 128
126 255 128
126 255 128
126 255 128
126 255 128
127 255 128
127 255 128
127 255 128
127 255 128
127 255 128
127 255 128
127 255 128
127 255 128
127 255 128
127 255 128
127 255 128
127 255 128
127 255 128
127 255 128
127 255 128
127 255 128
127 255 128
127 255 128
127 255 128
127 255 128
128 255 128
128 255 128
128 255 128
128 255 128
128 255 128
128 255 128
128 255 128
128 255 128
128 255 128
128 255 128
128 255 128
128 255 128
128 255 128
128 255 128
128 255 128
128 255 128
128 255 128
128 255 128
128 255 128
128 255 128
128 255 128
129 255 128
129 255 128
129 255 128
129 255 128
129 255 128
129 255 128
129 255 128
129 255 128
129 255 128
129 255 128
129 255 128
126 255 128
126 255 128
126 255 128
126 255 128
126 255 128
126 255 128
126 255 128
126 255 128
126 255 128
126 255 128
126 255 128
127 255 128
127 255 128
127 255 128
127 255 128
127 255 128
127 255 128
127 255 128
127 255 128
127 255 128
127 255 128
127 255 128
127 255 128
127 255 128
127 255 128
127 255 128
127 255 128
127 255 128
127 255 128
127 255 128
127 255 128
127 255 128
128 255 128
128 255 128
128 255 128
128 255 128
128 255 128
128 255 128
128 255 128
128 255 128
128 255 128
128 255 128
128 255 128
128 255 128
128 255 128
128 255 128
128 255 128
128 255 128
128 255 128
128 255 128
128 255 128
128 255 128
128 255 128
129 255 128
129 255 128
129 255 128
129 255 128
129 255 128
129 255 128
129 255 128
129 255 128
129 255 128
129 255 128
129 255 128
126 255 128
126 255 128
126 255 128
126 255 128
126 255 128
126 255 128
126 255 128
126 255 128
126 255 128
126 255 128
127 255 128
127 255 128
127 255 128
127 255 128
127 255 128
127 255 128
127 255 128
127 255 128
127 255 128
127 255 128
127 255 128
127 255 128
127 255 128
127 255 128
127 255 128
127 255 128
127 255 128
127 255 128
127 255 128
127 255 128
127 255 128
127 255 128
128 255 128
128 255 128
128 255 128
128 255 128
128 255 128
128 255 128
128 255 128
128 255 128
128 255 128
128 255 128
128 255 128
128 255 128
128 255 128
128 255 128
128 255 128
128 255 128
128 255 128
128 255 128
128 255 128
128 255 128
128 255 128
128 255 128
129 255 128
129 255 128
129 255 128
129 255 128
129 255 128
129 255 128
129 255 128
129 255 128
129 255 128
129 255 128
126 255 128
126 255 128
126 255 128
126 255 128
126 255 128
126 255 128
126 255 128
126 255 128
126 255 128
127 255 128
127 255 128
127 255 128
127 255 128
127 255 128
127 255 128
127 255 128
127 255 128
127 255 128
127 255 128
127 255 128
127 255 128
127 255 128
127 255 128
127 255 128
127 255 128
127 255 128
127 255 128
127 255 128
127 255 128
127 255 128
127 255 128
127 255 128
128 255 128
128 255 128
128 255 128
128 255 128
128 255 128
128 255 128
128 255 128
128 255 128
128 255 128
128 255 128
128 255 128
128 255 128
128 255 128
128 255 128
128 255 128
128 255 128
128 255 128
128 255 128
128 255 128
128 255 128
128 255 128
128 255 128
128 255 128
129 255 128
129 255 128
129 255 128
129 255 128
129 255 128
129 255 128
129 255 128
129 255 128
129 255 128
126 255 128
126 255 128
126 255 128
126 255 128
126 255 128
126 255 128
126 255 128
126 255 128
127 255 128
127 255 128
127 255 128
127 255 128
127 255 128
127 255 128
127 255 128
127 255 128
127 255 128
127 255 128
127 255 128
127 255 128
127 255 128
127 255 128
127 255 128
127 255 128
127 255 128
127 255 128
127 255 128
127 255 128
127 255 128
127 255 128
127 255 128
127 255 128
128 255 128
128 255 128
128 255 128
128 255 128
128 255 128
128 255 128
128 255 128
128 255 128
128 255 128
128 255 128
128 255 128
128 255 128
128 255 128
128 255 128
128 255 128
128 255 128
128 255 128
128 255 128
128 255 128
128 255 128
128 255 128
128 255 128
128 255 128
128 255 128
129 255 128
129 255 128
129 255 128
129 255 128
129 255 128
129 255 128
129 255 128
129 255 128
126 255 128
126 255 128
126 255 128
126 255 128
126 255 128
126 255 128
126 255 128
127 255 128
127 255 128
127 255 128
127 255 128
127 255 128
127 255 128
127 255 128
127 255 128
127 255 128
127 255 128
127 255 128
127 255 128
127 255 128
127 255 128
127 255 128
127 255 128
127 255 128
127 255 128
127 255 128
127 255 128
127 255 128
127 255 128
127 255 128
127 255 128
127 255 128
128 255 128
128 255 128
128 255 128
128 255 128
128 255 128
128 255 128
128 255 128
128 255 128
128 255 128
128 255 128
128 255 128
128 255 128
128 255 128
128 255 128
128 255 128
128 255 128
128 255 128
128 255 128
128 255 128
128 255 128
128 255 128
128 255 128
128 255 128
128 255 128
128 255 128
129 255 128
129 255 128
129 255 128
129 255 128
129 255 128
129 255 128
129 255 128
126 255 128
126 255 128
126 255 128
126 255 128
126 255 128
126 255 128
127 255 128
127 255 128
127 255 128
127 255 128
127 255 128
127 255 128
127 255 128
127 255 128
127 255 128
127 255 128
127 255 128
127 255 128
127 255 128
127 255 128
127 255 128
127 255 128
127 255 128
127 255 128
127 255 128
127 255 128
127 255 128
127 255 128
127 255 128
127 255 128
127 255 128
127 255 128
128 255 128
128 255 128
128 255 128
128 255 128
128 255 128
128 255 128
128 255 128
128 255 128
128 255 128
128 255 128
128 255 128
128 255 128
128 255 128
128 255 128
128 255 128
128 255 128
128 255 128
128 255 128
128 255 128
128 255 128
128 255 128
128 255 128
128 255 128
128 255 128
128 255 128
128 255 128
129 255 128
129 255 128
129 255 128
129 255 128
129 255 128
129 255 128
126 255 128
126 255 128
126 255 128
126 255 128
126 255 128
127 255 128
127 255 128
127 255 128
127 255 128
127 255 128
127 255 128
127 255 128
127 255 128
127 255 128
127 255 128
127 255 128
127 255 128
127 255 128
127 255 128
127 255 128
127 255 128
127 255 128
127 255 128
127 255 128
127 255 128
127 255 128
127 255 128
127 255 128
127 255 128
127 255 128
127 255 128
127 255 128
128 255 128
128 255 128
128 255 128
128 255 128
128 255 128
128 255 128
128 255 128
128 255 128
128 255 128
128 255 128
128 255 128
128 255 128
128 255 128
128 255 128
128 255 128
128 255 128
128 255 128
128 255 128
128 255 128
128 255 128
128 255 128
128 255 128
128 255 128
128 255 128
128 255 128
128 255 128
128 255 128
129 255 128
129 255 128
129 255 128
129 255 128
129 255 128
126 255 128
126 255 128
126 255 128
126 255 128
126 255 128
127 255 128
127 255 128
127 255 128
127 255 128
127 255 128
127 255 128
127 255 128
127 255 128
127 255 128
127 255 128
127 255 128
127 255 128
127 255 128
127 255 128
127 255 128
127 255 128
127 255 128
127 255 128
127 255 128
127 255 128
127 255 128
127 255 128
127 255 128
127 255 128
127 255 128
127 255 128
127 255 128
128 255 128
128 255 128
128 255 128
128 255 128
128 255 128
128 255 128
128 255 128
128 255 128
128 255 128
128 255 128
128 255 128
128 255 128
128 255 128
128 255 128
128 255 128
128 255 128
128 255 128
128 255 128
128 255 128
128 255 128
128 255 128
128 255 128
128 255 128
128 255 128
128 255 128
128 255 128
128 255 128
129 255 128
129 255 128
129 255 128
129 255 128
129 255 128
